<svg xmlns="http://www.w3.org/2000/svg" width="35.433" height="35.433" viewBox="0 0 35.433 35.433">
    <path id="Path_451" data-name="Path 451" d="M79.439,64.626c-.316,2.088-4.685,5.216-10.951,7.625a41.451,41.451,0,0,1-10.874,2.686,1.169,1.169,0,0,1-.656-.315c-.135-.13-.4-.45.051-.6A43.379,43.379,0,0,0,68.2,71.234c6.565-2.523,11.125-5.808,11.384-7.977q-.017-.271-.042-.54c-.63,2.207-5.158,5.37-11.548,7.826-1.435.552-2.865,1.03-4.254,1.431a.751.751,0,0,1-.81-.255.549.549,0,0,1,.35-.849c1.424-.411,2.89-.9,4.36-1.466,6.347-2.44,10.9-5.56,11.764-7.809-.041-.263-.088-.523-.14-.782-.945,2.269-5.521,5.383-11.871,7.824q-.62.237-1.237.458a.662.662,0,1,1-.43-1.246q.624-.224,1.251-.464c6.359-2.444,10.96-5.556,11.979-7.845q-.12-.423-.259-.837c-1.043,2.294-5.649,5.4-12.006,7.846a50.828,50.828,0,0,1-9.3,2.634.8.8,0,0,1-.773-.435.593.593,0,0,1,.317-.909,50.811,50.811,0,0,0,9.289-2.63c6.328-2.433,10.918-5.525,11.977-7.813-.118-.276-.242-.548-.374-.816-1.057,2.276-5.622,5.35-11.913,7.768a53.352,53.352,0,0,1-6.5,2.042.721.721,0,0,1-.785-.4.692.692,0,0,1,.386-.969,52.571,52.571,0,0,0,6.41-2.012c6.2-2.385,10.705-5.417,11.742-7.661a17.719,17.719,0,1,0,2.458,9.006c0-.363-.012-.724-.033-1.082C79.55,63.7,79.484,64.222,79.439,64.626Zm-15.8,3.92a.7.7,0,0,1,.928.808.742.742,0,0,1-1.349.1A.652.652,0,0,1,63.642,68.546Zm-2.438.7a.741.741,0,0,1,.931.837.72.72,0,0,1-1.317.029A.593.593,0,0,1,61.2,69.244Zm-.04,2.185a.721.721,0,0,1,.93.743c-.134.5-.964.517-1.268.025A.5.5,0,0,1,61.164,71.429Zm-1.035,1.193c-.1.478-.9.452-1.223-.04a.444.444,0,0,1,.282-.725A.786.786,0,0,1,60.129,72.622Zm-1.265-2.833a.8.8,0,0,1,.926.868c-.133.549-.96.518-1.264-.049A.536.536,0,0,1,58.864,69.789Zm-6.348-.282c-.165.336-.688.056-.9-.483-.119-.3-.133-.724.208-.74A1.037,1.037,0,0,1,52.516,69.507Zm1.61-.1c-.173.429-.786.208-1.024-.369-.122-.3-.121-.734.265-.781A.949.949,0,0,1,54.126,69.412Zm.964-1.3a.877.877,0,0,1,.8,1.122c-.2.453-.869.273-1.113-.3C54.651,68.637,54.666,68.188,55.09,68.11Zm.044,6.514c-.2-.2-.332-.5-.009-.514.475.027,1.007.552.984.795C56.084,75.169,55.5,75,55.134,74.624Zm.785-8.164a.639.639,0,0,1,.4-.875.8.8,0,0,1,.741,1.121C56.813,67.186,56.119,67.037,55.919,66.46Zm.464,4.489c-.146-.267-.156-.684.281-.773a.85.85,0,0,1,.895.953C57.413,71.6,56.677,71.484,56.383,70.949Zm11.772,2.837c-.164.474-.944.628-1.16.229-.115-.212-.006-.528.422-.7C67.936,73.155,68.272,73.445,68.155,73.786Zm2.072-.817c-.2.493-.952.676-1.109.269-.072-.189.027-.547.475-.75C70.125,72.294,70.357,72.64,70.227,72.969Zm8.659-5.922c-.519,1.57-3.244,3.673-7.234,5.539-.383.144-.5-.045-.535-.133,0-.005-.146-.471.462-.814,4.381-2.05,7.317-4.369,7.686-6.045C79.167,66.034,79,66.612,78.886,67.047Z" transform="translate(-44.182 -46.639)" fill="#0aa4b2"/>
</svg>
